<svg width="205" height="17" viewBox="0 0 205 17" fill="none" xmlns="http://www.w3.org/2000/svg">
<path d="M8.5 10.56V7.68H15.76C15.8533 8.82667 15.7533 9.90667 15.46 10.92C15.1667 11.9333 14.7067 12.82 14.08 13.58C13.4533 14.34 12.6667 14.94 11.72 15.38C10.7733 15.8067 9.68667 16.02 8.46 16.02C7.32667 16.02 6.28 15.84 5.32 15.48C4.37333 15.12 3.54667 14.6133 2.84 13.96C2.14667 13.2933 1.60667 12.5 1.22 11.58C0.833333 10.6467 0.64 9.62 0.64 8.5C0.64 7.38 0.84 6.36667 1.24 5.46C1.64 4.55333 2.2 3.78 2.92 3.14C3.64 2.48667 4.48667 1.99333 5.46 1.66C6.43333 1.31333 7.48667 1.14 8.62 1.14C9.64667 1.14 10.56 1.29333 11.36 1.6C12.1733 1.89333 12.8867 2.3 13.5 2.82C14.1133 3.32667 14.6467 3.90667 15.1 4.56L11.56 6.26C11.28 5.75333 10.9067 5.32667 10.44 4.98C9.97333 4.63333 9.36667 4.46 8.62 4.46C7.91333 4.46 7.26 4.61333 6.66 4.92C6.06 5.22667 5.58 5.68 5.22 6.28C4.87333 6.88 4.7 7.62 4.7 8.5C4.7 9.36667 4.86667 10.12 5.2 10.76C5.53333 11.3867 5.99333 11.8667 6.58 12.2C7.16667 12.5333 7.84667 12.7 8.62 12.7C9.08667 12.7 9.5 12.6533 9.86 12.56C10.22 12.4533 10.5333 12.3067 10.8 12.12C11.0667 11.92 11.2933 11.6867 11.48 11.42C11.68 11.1533 11.84 10.8667 11.96 10.56H8.5ZM17.8634 1.5H21.7434V10.58C21.7434 11.22 21.9101 11.74 22.2434 12.14C22.5768 12.5267 23.0768 12.72 23.7434 12.72C24.4234 12.72 24.9301 12.5267 25.2634 12.14C25.5968 11.74 25.7634 11.22 25.7634 10.58V1.5H29.6434V10.9C29.6434 11.8467 29.4901 12.6533 29.1834 13.32C28.8768 13.9867 28.4501 14.5333 27.9034 14.96C27.3568 15.3733 26.7301 15.68 26.0234 15.88C25.3168 16.08 24.5568 16.18 23.7434 16.18C22.9434 16.18 22.1834 16.08 21.4634 15.88C20.7568 15.68 20.1301 15.3733 19.5834 14.96C19.0501 14.5333 18.6301 13.9867 18.3234 13.32C18.0168 12.6533 17.8634 11.8467 17.8634 10.9V1.5ZM32.4166 1.5H36.3766V15.5H32.4166V1.5ZM39.2525 1.5H43.1325V12.2H48.7925V15.5H39.2525V1.5ZM51.2081 9.92V6.46H62.1081V9.92H51.2081ZM59.6681 1.5H63.5481V15.5H59.6681V1.5ZM50.2681 1.5H54.1481V15.5H50.2681V1.5ZM69.0605 15.5V12.36H76.1205V15.5H69.0605ZM69.0605 4.64V1.5H76.1205V4.64H69.0605ZM69.0605 9.74V6.7H75.7205V9.74H69.0605ZM66.4205 1.5H70.1405V15.5H66.4205V1.5ZM82.6033 9.32H86.5833L90.7833 15.5H86.2633L82.6033 9.32ZM78.8033 1.5H82.6833V15.5H78.8033V1.5ZM81.2833 4.78V1.5H84.3033C85.5833 1.5 86.6366 1.7 87.4633 2.1C88.3033 2.5 88.9233 3.05333 89.3233 3.76C89.7366 4.45333 89.9433 5.26 89.9433 6.18C89.9433 7.08667 89.7366 7.9 89.3233 8.62C88.9233 9.32667 88.3033 9.88 87.4633 10.28C86.6366 10.6667 85.5833 10.86 84.3033 10.86H81.2833V7.92H83.9833C84.3966 7.92 84.7433 7.86 85.0233 7.74C85.3033 7.62 85.5166 7.44 85.6633 7.2C85.8233 6.96 85.9033 6.67333 85.9033 6.34C85.9033 6.00667 85.8233 5.72667 85.6633 5.5C85.5166 5.26 85.3033 5.08 85.0233 4.96C84.7433 4.84 84.3966 4.78 83.9833 4.78H81.2833ZM96.3603 9.06L95.5803 15.5H91.4603L93.8803 0.8L99.9603 8.86L106.06 0.8L108.48 15.5H104.36L103.58 9.06L99.9603 14.2L96.3603 9.06ZM113.201 15.5V12.36H120.261V15.5H113.201ZM113.201 4.64V1.5H120.261V4.64H113.201ZM113.201 9.74V6.7H119.861V9.74H113.201ZM110.561 1.5H114.281V15.5H110.561V1.5ZM132.4 8.5C132.4 9.28667 132.573 9.96 132.92 10.52C133.28 11.0667 133.753 11.4867 134.34 11.78C134.927 12.06 135.573 12.2 136.28 12.2C136.947 12.2 137.527 12.1133 138.02 11.94C138.513 11.7667 138.953 11.5467 139.34 11.28C139.727 11 140.067 10.7067 140.36 10.4V14.48C139.813 14.88 139.207 15.2133 138.54 15.48C137.887 15.7333 137.047 15.86 136.02 15.86C134.86 15.86 133.793 15.6867 132.82 15.34C131.847 14.9933 131.013 14.4933 130.32 13.84C129.627 13.1867 129.087 12.4133 128.7 11.52C128.327 10.6133 128.14 9.60667 128.14 8.5C128.14 7.39333 128.327 6.39333 128.7 5.5C129.087 4.59333 129.627 3.81333 130.32 3.16C131.013 2.50667 131.847 2.00667 132.82 1.66C133.793 1.31333 134.86 1.14 136.02 1.14C137.047 1.14 137.887 1.26667 138.54 1.52C139.207 1.77333 139.813 2.10667 140.36 2.52V6.6C140.067 6.29333 139.727 6.00667 139.34 5.74C138.953 5.46 138.513 5.23333 138.02 5.06C137.527 4.88667 136.947 4.8 136.28 4.8C135.573 4.8 134.927 4.94667 134.34 5.24C133.753 5.52 133.28 5.94 132.92 6.5C132.573 7.04667 132.4 7.71333 132.4 8.5ZM145.209 13.24L145.329 10.38H152.509L152.609 13.24H145.209ZM148.869 7.24L147.029 11.44L147.269 12.3L145.649 15.5H141.249L148.869 0.559999L156.509 15.5H152.109L150.509 12.44L150.729 11.44L148.869 7.24ZM161.685 9.32H165.665L169.865 15.5H165.345L161.685 9.32ZM157.885 1.5H161.765V15.5H157.885V1.5ZM160.365 4.78V1.5H163.385C164.665 1.5 165.719 1.7 166.545 2.1C167.385 2.5 168.005 3.05333 168.405 3.76C168.819 4.45333 169.025 5.26 169.025 6.18C169.025 7.08667 168.819 7.9 168.405 8.62C168.005 9.32667 167.385 9.88 166.545 10.28C165.719 10.6667 164.665 10.86 163.385 10.86H160.365V7.92H163.065C163.479 7.92 163.825 7.86 164.105 7.74C164.385 7.62 164.599 7.44 164.745 7.2C164.905 6.96 164.985 6.67333 164.985 6.34C164.985 6.00667 164.905 5.72667 164.745 5.5C164.599 5.26 164.385 5.08 164.105 4.96C163.825 4.84 163.479 4.78 163.065 4.78H160.365ZM175.442 9.06L174.662 15.5H170.542L172.962 0.8L179.042 8.86L185.142 0.8L187.562 15.5H183.442L182.662 9.06L179.042 14.2L175.442 9.06ZM192.943 8.5C192.943 9.24667 193.09 9.91333 193.383 10.5C193.676 11.0733 194.09 11.5267 194.623 11.86C195.156 12.18 195.783 12.34 196.503 12.34C197.236 12.34 197.863 12.18 198.383 11.86C198.916 11.5267 199.33 11.0733 199.623 10.5C199.916 9.91333 200.063 9.24667 200.063 8.5C200.063 7.74 199.923 7.07333 199.643 6.5C199.363 5.92667 198.956 5.48 198.423 5.16C197.903 4.82667 197.263 4.66 196.503 4.66C195.783 4.66 195.156 4.82667 194.623 5.16C194.09 5.48 193.676 5.92667 193.383 6.5C193.09 7.07333 192.943 7.74 192.943 8.5ZM188.843 8.5C188.843 7.39333 189.036 6.39333 189.423 5.5C189.823 4.59333 190.37 3.82 191.063 3.18C191.756 2.52667 192.563 2.02667 193.483 1.68C194.416 1.32 195.423 1.14 196.503 1.14C197.61 1.14 198.623 1.32 199.543 1.68C200.476 2.02667 201.29 2.52667 201.983 3.18C202.676 3.82 203.21 4.59333 203.583 5.5C203.97 6.39333 204.163 7.39333 204.163 8.5C204.163 9.59333 203.976 10.6 203.603 11.52C203.23 12.44 202.703 13.24 202.023 13.92C201.343 14.5867 200.53 15.1067 199.583 15.48C198.65 15.84 197.623 16.02 196.503 16.02C195.383 16.02 194.356 15.84 193.423 15.48C192.49 15.1067 191.676 14.5867 190.983 13.92C190.303 13.24 189.776 12.44 189.403 11.52C189.03 10.6 188.843 9.59333 188.843 8.5Z" fill="#27527B"/>
</svg>
